<svg width="365" height="189" viewBox="0 0 365 189" fill="none" xmlns="http://www.w3.org/2000/svg">
<path d="M27.4928 90.2305C27.4928 87.3301 27.6685 84.2539 28.0201 81.002C28.4596 77.75 29.1187 74.5859 29.9977 71.5098C30.9644 68.3457 32.151 65.3574 33.5572 62.5449C35.0514 59.6445 36.8092 57.1396 38.8307 55.0303C40.94 52.833 43.357 51.1191 46.0816 49.8887C48.8941 48.5703 52.0582 47.9111 55.5738 47.9111C58.65 47.9111 61.3746 48.79 63.7477 50.5479C66.1207 52.2178 68.1861 54.459 69.9439 57.2715C71.7018 59.9961 73.1519 63.1162 74.2945 66.6318C75.4371 70.1475 76.36 73.707 77.0631 77.3105C77.8541 80.8262 78.3814 84.2539 78.6451 87.5938C78.9088 90.8457 79.0406 93.6582 79.0406 96.0312C78.6891 101.217 77.942 106.007 76.7994 110.401C75.6568 114.708 74.0748 118.531 72.0533 121.871C70.1197 125.123 67.7027 127.804 64.8023 129.913C61.9019 132.022 58.3863 133.429 54.2555 134.132C50.3004 134.132 46.9166 133.429 44.1041 132.022C41.2916 130.616 38.8746 128.771 36.8531 126.485C34.8316 124.2 33.2057 121.563 31.9752 118.575C30.7447 115.587 29.7779 112.467 29.0748 109.215C28.4596 105.963 28.0201 102.711 27.7564 99.459C27.5807 96.1191 27.4928 93.043 27.4928 90.2305ZM32.5025 90.2305C32.5025 92.3398 32.5465 94.7129 32.6344 97.3496C32.7223 99.9863 32.942 102.667 33.2935 105.392C33.733 108.028 34.3482 110.665 35.1393 113.302C35.9303 115.851 36.985 118.136 38.3033 120.157C39.7096 122.091 41.4234 123.673 43.4449 124.903C45.5543 126.134 48.0592 126.749 50.9596 126.749C55.1783 127.013 58.65 126.485 61.3746 125.167C64.0992 123.849 66.2965 121.827 67.9664 119.103C69.6363 116.378 70.9107 113.082 71.7896 109.215C72.6685 105.348 73.3717 100.953 73.899 96.0312C73.899 94.0977 73.8111 91.6807 73.6353 88.7803C73.4596 85.8799 73.108 82.8477 72.5807 79.6836C72.1412 76.5195 71.482 73.3555 70.6031 70.1914C69.8121 66.9395 68.7135 64.0391 67.3072 61.4902C65.9889 58.8535 64.3629 56.7441 62.4293 55.1621C60.5836 53.5801 58.3424 52.7891 55.7057 52.7891C52.981 52.7891 50.5201 53.4482 48.3228 54.7666C46.1256 55.9971 44.148 57.667 42.3902 59.7764C40.7203 61.7979 39.2262 64.127 37.9078 66.7637C36.6773 69.4004 35.6666 72.125 34.8756 74.9375C34.0846 77.6621 33.4693 80.3867 33.0299 83.1113C32.6783 85.748 32.5025 88.1211 32.5025 90.2305ZM113.713 98.668H108.704L96.0475 73.3555V131.495L90.2467 132.286C90.0709 129.21 89.8951 125.343 89.7193 120.685C89.6314 116.026 89.4996 111.017 89.3238 105.655C89.2359 100.206 89.148 94.625 89.0602 88.9121C88.9723 83.1992 88.8844 77.7061 88.7965 72.4326C88.7086 67.1592 88.5768 62.3252 88.401 57.9307C88.3131 53.5361 88.1812 49.9766 88.0055 47.252C88.6207 47.252 89.192 47.208 89.7193 47.1201C90.3346 47.0322 90.8619 46.9883 91.3014 46.9883C91.7408 46.9004 92.1363 46.9443 92.4879 47.1201C92.8394 47.2959 93.1471 47.6914 93.4107 48.3066L111.209 88.3848L126.37 50.416C126.546 49.9766 126.853 49.625 127.293 49.3613C127.82 49.0098 128.347 48.7021 128.875 48.4385C129.49 48.1748 130.105 47.999 130.72 47.9111C131.336 47.7354 131.863 47.6475 132.302 47.6475C132.39 47.6475 132.434 47.7793 132.434 48.043C132.434 48.3066 132.522 49.2295 132.698 50.8115C132.874 52.3936 133.137 54.8984 133.489 58.3262C133.928 61.666 134.587 66.4561 135.466 72.6963C136.345 78.8486 137.444 86.7148 138.762 96.2949C140.169 105.787 141.926 117.521 144.036 131.495C143.684 132.286 143.201 132.813 142.586 133.077C142.058 133.341 141.531 133.429 141.004 133.341C140.564 133.253 140.125 133.077 139.685 132.813C139.334 132.462 139.114 132.022 139.026 131.495L129.006 60.6992L113.713 98.668ZM148.518 63.0723C149.924 61.0508 151.77 59.3369 154.055 57.9307C156.428 56.4365 159.021 55.2061 161.834 54.2393C164.734 53.2725 167.81 52.5254 171.062 51.998C174.402 51.4707 177.654 51.0752 180.818 50.8115C183.982 50.5479 187.058 50.3721 190.046 50.2842C193.035 50.1963 195.671 50.1523 197.957 50.1523C198.132 50.1523 198.528 50.1963 199.143 50.2842C199.758 50.2842 200.418 50.3281 201.121 50.416C201.824 50.416 202.439 50.416 202.966 50.416C203.582 50.416 204.021 50.416 204.285 50.416C204.636 52.3496 204.417 53.7119 203.626 54.5029C202.922 55.2061 201.956 55.6455 200.725 55.8213C199.583 55.9092 198.352 55.8652 197.034 55.6895C195.715 55.4258 194.749 55.3818 194.133 55.5576C193.254 55.6455 191.848 55.9092 189.915 56.3486C188.069 56.7002 186.004 57.1396 183.718 57.667C181.433 58.1064 178.972 58.6338 176.336 59.249C173.787 59.7764 171.326 60.3037 168.953 60.8311C166.668 61.2705 164.602 61.71 162.756 62.1494C160.911 62.5889 159.548 62.8965 158.67 63.0723C157.263 63.5996 156.472 64.2588 156.296 65.0498C156.121 65.8408 156.033 66.7637 156.033 67.8184C156.033 69.6641 156.121 71.7295 156.296 74.0146C156.56 76.2998 156.824 78.585 157.087 80.8701C157.439 83.0674 157.747 85.0889 158.01 86.9346C158.362 88.7803 158.582 90.1426 158.67 91.0215C159.021 91.1094 159.68 91.1533 160.647 91.1533C161.614 91.1533 162.273 91.1533 162.625 91.1533C164.646 91.1533 166.624 90.9775 168.557 90.626C170.491 90.2744 172.424 89.8789 174.358 89.4395C176.292 89 178.269 88.6484 180.291 88.3848C182.312 88.0332 184.378 87.8574 186.487 87.8574V92.7354C185.608 92.7354 184.378 92.8232 182.796 92.999C181.213 93.0869 179.456 93.3066 177.522 93.6582C175.676 94.0098 173.787 94.4053 171.853 94.8447C169.92 95.1963 168.162 95.5918 166.58 96.0312C164.998 96.4707 163.679 96.9102 162.625 97.3496C161.658 97.7891 161.174 98.2285 161.174 98.668V126.09C165.305 126.09 169.392 125.958 173.435 125.694C177.566 125.431 181.697 125.167 185.828 124.903C189.959 124.552 194.089 124.244 198.22 123.98C202.351 123.717 206.482 123.585 210.613 123.585C210.613 124.64 210.261 125.519 209.558 126.222C208.855 126.837 208.02 127.364 207.053 127.804C206.174 128.155 205.208 128.419 204.153 128.595C203.098 128.771 202.307 128.902 201.78 128.99C201.428 129.078 200.33 129.21 198.484 129.386C196.638 129.562 194.353 129.825 191.629 130.177C188.904 130.528 185.872 130.88 182.532 131.231C179.192 131.583 175.896 131.935 172.644 132.286C169.392 132.638 166.316 132.989 163.416 133.341C160.515 133.604 158.098 133.824 156.165 134C155.901 134.088 155.505 134.132 154.978 134.132C154.978 122.354 154.583 110.489 153.792 98.5361C153.088 86.4951 151.331 74.6738 148.518 63.0723ZM276.399 125.299C272.971 127.057 269.939 128.463 267.302 129.518C264.666 130.572 262.117 131.407 259.656 132.022C257.195 132.55 254.69 132.901 252.141 133.077C249.68 133.253 246.824 133.341 243.572 133.341C239.265 133.341 235.398 132.857 231.97 131.891C228.543 130.836 225.598 129.298 223.137 127.276C220.764 125.167 218.919 122.53 217.6 119.366C216.282 116.114 215.623 112.203 215.623 107.633C215.623 103.502 216.018 99.1514 216.809 94.5811C217.688 90.0107 218.919 85.4844 220.501 81.002C222.171 76.4316 224.192 72.0811 226.565 67.9502C229.026 63.7314 231.882 60.04 235.134 56.876C238.386 53.7119 242.034 51.207 246.077 49.3613C250.12 47.4277 254.602 46.4609 259.524 46.4609C261.37 46.4609 263.567 46.6807 266.116 47.1201C268.665 47.4717 271.082 48.1309 273.367 49.0977C275.74 49.9766 277.717 51.2949 279.299 53.0527C280.881 54.7227 281.672 56.876 281.672 59.5127C281.672 60.4795 281.189 60.9629 280.222 60.9629C279.343 60.875 278.201 60.5234 276.795 59.9082C275.476 59.293 273.938 58.502 272.18 57.5352C270.51 56.5684 268.884 55.6455 267.302 54.7666C265.72 53.8877 264.27 53.1406 262.952 52.5254C261.633 51.9102 260.623 51.6904 259.92 51.8662C255.701 51.8662 251.878 52.7012 248.45 54.3711C245.022 55.9531 241.902 58.1064 239.089 60.8311C236.365 63.5557 233.948 66.7197 231.838 70.3232C229.817 73.8389 228.103 77.5303 226.697 81.3975C225.379 85.2646 224.368 89.1318 223.665 92.999C223.049 96.7783 222.742 100.382 222.742 103.81C222.127 107.94 222.346 111.544 223.401 114.62C224.544 117.608 226.213 120.113 228.411 122.135C230.608 124.068 233.245 125.519 236.321 126.485C239.397 127.452 242.561 128.023 245.813 128.199C249.153 128.287 252.449 127.979 255.701 127.276C258.953 126.485 261.897 125.343 264.534 123.849C267.258 122.354 269.456 120.509 271.126 118.312C272.883 116.114 273.894 113.653 274.158 110.929C274.158 108.116 273.587 105.743 272.444 103.81C271.389 101.876 269.939 100.25 268.093 98.9316C266.336 97.6133 264.27 96.5586 261.897 95.7676C259.612 94.9766 257.239 94.3613 254.778 93.9219C252.405 93.4824 249.988 93.1748 247.527 92.999C245.154 92.8232 242.957 92.6035 240.935 92.3398V89.9668C240.935 89.791 242.078 89.4834 244.363 89.0439C246.736 88.6045 249.504 88.1211 252.669 87.5938C255.921 87.0664 259.26 86.5391 262.688 86.0117C266.116 85.4844 269.016 85.0889 271.389 84.8252C271.389 84.8252 271.609 84.8252 272.048 84.8252C272.488 84.7373 272.971 84.6934 273.499 84.6934C274.026 84.6934 274.553 84.6934 275.081 84.6934C275.608 84.6934 276.047 84.6934 276.399 84.6934C276.575 84.6934 276.882 84.6934 277.322 84.6934C277.849 84.6934 278.377 84.6934 278.904 84.6934C279.431 84.6934 279.915 84.7373 280.354 84.8252C280.881 84.8252 281.233 84.8252 281.409 84.8252C281.497 86.0557 281.585 88.0332 281.672 90.7578C281.848 93.3945 282.024 96.3828 282.2 99.7227C282.376 102.975 282.551 106.446 282.727 110.138C282.903 113.829 283.079 117.345 283.254 120.685C283.43 123.937 283.562 126.881 283.65 129.518C283.826 132.154 283.958 134.132 284.046 135.45C284.046 135.802 284.046 136.461 284.046 137.428C284.046 138.395 284.046 139.405 284.046 140.46C284.133 141.603 284.177 142.613 284.177 143.492C284.177 144.459 284.177 145.162 284.177 145.602H281.409L276.399 125.299ZM276.399 97.4814V89.4395C275.081 89.4395 273.718 89.791 272.312 90.4941C270.906 91.1094 269.719 91.7246 268.753 92.3398L276.399 97.4814ZM310.94 51.8662C314.192 51.8662 317.004 52.833 319.378 54.7666C321.838 56.6123 323.948 59.1172 325.706 62.2812C327.551 65.4453 329.089 69.0928 330.32 73.2236C331.55 77.3545 332.561 81.7051 333.352 86.2754C334.143 90.7578 334.758 95.3281 335.198 99.9863C335.637 104.557 335.945 108.863 336.121 112.906C336.296 116.949 336.384 120.597 336.384 123.849C336.472 127.101 336.516 129.649 336.516 131.495H333.352L328.342 103.678C327.903 103.238 326.892 102.975 325.31 102.887C323.816 102.799 322.014 102.843 319.905 103.019C317.883 103.194 315.642 103.458 313.181 103.81C310.808 104.073 308.523 104.293 306.326 104.469C304.216 104.557 302.283 104.601 300.525 104.601C298.767 104.513 297.493 104.205 296.702 103.678V131.495H289.978C289.978 131.231 289.978 130.748 289.978 130.045C290.066 129.254 290.11 128.463 290.11 127.672C290.11 126.881 290.154 126.134 290.242 125.431C290.33 124.728 290.374 124.244 290.374 123.98C290.901 118.883 291.296 113.741 291.56 108.556C291.912 103.282 292.307 98.1846 292.747 93.2627C293.186 88.3408 293.757 83.6387 294.461 79.1562C295.252 74.6738 296.35 70.6309 297.756 67.0273C299.163 63.3359 300.921 60.2158 303.03 57.667C305.139 55.0303 307.776 53.0967 310.94 51.8662ZM313.049 57.9307C310.764 57.9307 308.831 58.7656 307.249 60.4355C305.754 62.0176 304.524 64.127 303.557 66.7637C302.59 69.3125 301.843 72.1689 301.316 75.333C300.789 78.4971 300.437 81.6172 300.261 84.6934C300.086 87.6816 299.954 90.4941 299.866 93.1309C299.866 95.6797 299.866 97.6572 299.866 99.0635C304.172 99.0635 308.567 98.7559 313.049 98.1406C317.532 97.4375 321.751 96.7344 325.706 96.0312C325.794 95.6797 325.837 95.1084 325.837 94.3174C325.925 93.5264 325.969 92.6475 325.969 91.6807C326.057 90.7139 326.101 89.791 326.101 88.9121C326.189 88.0332 326.233 87.4619 326.233 87.1982C326.233 84.2979 326.057 81.5293 325.706 78.8926C325.442 76.2559 324.827 73.707 323.86 71.2461C322.981 68.6973 321.663 66.3242 319.905 64.127C318.235 61.9297 315.95 59.8643 313.049 57.9307Z" fill="white"/>
<path d="M149.555 155.948L150.873 154.629L164.979 179.546L169.813 153.399H171.22L166.43 183.765L165.375 184.864L149.555 155.948ZM173.021 160.43C173.021 159.493 173.373 158.687 174.076 158.013C174.809 157.31 175.688 156.753 176.713 156.343C177.738 155.904 178.808 155.581 179.921 155.376C181.034 155.142 181.986 155.025 182.777 155.025C183.568 155.025 184.359 155.157 185.15 155.42C185.971 155.684 186.688 156.065 187.304 156.563C187.919 157.032 188.388 157.647 188.71 158.409C189.062 159.141 189.179 159.991 189.062 160.957C188.915 162.452 188.417 163.77 187.567 164.912C186.747 166.055 185.722 167.022 184.491 167.813C183.29 168.575 181.972 169.161 180.536 169.571C179.13 169.952 177.768 170.142 176.449 170.142C176.449 171.226 176.493 172.31 176.581 173.394C176.669 174.449 176.757 175.518 176.845 176.602C176.962 177.686 177.064 178.77 177.152 179.854C177.24 180.909 177.284 181.978 177.284 183.062C177.284 183.384 177.255 183.692 177.196 183.985C177.138 184.248 176.874 184.453 176.405 184.6L175.526 183.765C175.526 183.736 175.482 183.326 175.395 182.535C175.307 181.744 175.175 180.718 174.999 179.458C174.853 178.199 174.677 176.778 174.472 175.196C174.296 173.584 174.12 171.973 173.944 170.362C173.769 168.75 173.593 167.198 173.417 165.703C173.271 164.209 173.139 162.92 173.021 161.836C173.021 161.807 173.021 161.734 173.021 161.617C173.021 161.499 173.021 161.368 173.021 161.221C173.021 161.075 173.021 160.928 173.021 160.782C173.021 160.635 173.021 160.518 173.021 160.43ZM175.482 162.012C175.482 162.627 175.482 163.199 175.482 163.726C175.512 164.253 175.556 164.766 175.614 165.264C175.702 165.762 175.805 166.275 175.922 166.802C176.039 167.329 176.2 167.93 176.405 168.604C177.313 168.457 178.397 168.179 179.657 167.769C180.917 167.359 182.118 166.802 183.261 166.099C184.433 165.396 185.414 164.59 186.205 163.682C186.996 162.745 187.392 161.704 187.392 160.562C187.392 159.947 187.245 159.405 186.952 158.936C186.659 158.438 186.278 158.028 185.81 157.705C185.37 157.383 184.872 157.134 184.315 156.958C183.759 156.783 183.217 156.695 182.689 156.695C181.84 156.695 180.976 156.797 180.097 157.002C179.247 157.207 178.471 157.53 177.768 157.969C177.094 158.409 176.537 158.965 176.098 159.639C175.688 160.313 175.482 161.104 175.482 162.012ZM192.401 158.453C192.401 158.54 192.387 158.731 192.357 159.024C192.357 159.317 192.357 159.624 192.357 159.947C192.357 160.24 192.357 160.533 192.357 160.826C192.357 161.089 192.357 161.265 192.357 161.353C192.357 163.257 192.401 165.161 192.489 167.066C192.577 168.97 192.68 170.889 192.797 172.823C192.914 174.727 193.017 176.646 193.104 178.579C193.192 180.513 193.236 182.447 193.236 184.38L191.654 184.292C191.625 183.736 191.566 182.959 191.479 181.963C191.42 180.967 191.332 179.825 191.215 178.536C191.127 177.217 191.024 175.811 190.907 174.317C190.79 172.823 190.658 171.314 190.512 169.79C190.395 168.238 190.292 166.714 190.204 165.22C190.116 163.726 190.028 162.349 189.94 161.089C189.882 159.8 189.838 158.672 189.809 157.705C189.779 156.709 189.779 155.948 189.809 155.42C189.809 155.069 189.94 154.776 190.204 154.541C190.468 154.307 190.775 154.19 191.127 154.19C191.479 154.19 191.874 154.278 192.313 154.453C192.782 154.6 193.09 154.805 193.236 155.069L209.057 180.601C209.057 179.253 209.013 177.803 208.925 176.25C208.866 174.698 208.808 173.101 208.749 171.46C208.69 169.82 208.646 168.179 208.617 166.538C208.617 164.869 208.646 163.257 208.705 161.704C208.793 160.122 208.939 158.628 209.145 157.222C209.379 155.816 209.701 154.541 210.111 153.399C210.521 153.252 210.844 153.179 211.078 153.179C211.312 153.15 211.488 153.15 211.605 153.179C211.723 153.208 211.781 153.282 211.781 153.399C211.811 153.516 211.825 153.633 211.825 153.75C211.825 153.809 211.825 153.897 211.825 154.014C211.825 154.131 211.825 154.204 211.825 154.234C211.767 154.41 211.693 154.732 211.605 155.201C211.547 155.669 211.459 156.372 211.342 157.31C211.225 158.218 211.122 159.405 211.034 160.87C210.946 162.334 210.858 164.151 210.771 166.319C210.683 168.487 210.609 171.065 210.551 174.053C210.521 177.041 210.521 180.528 210.551 184.512L209.276 184.6L192.401 158.453Z" fill="url(#paint0_linear_18_22)"/>
<defs>
<linearGradient id="paint0_linear_18_22" x1="108.8" y1="171.2" x2="252.8" y2="171.2" gradientUnits="userSpaceOnUse">
<stop stop-color="#00FF09"/>
<stop offset="1" stop-color="#004C03"/>
</linearGradient>
</defs>
</svg>
