<svg width="365" height="189" viewBox="0 0 365 189" fill="none" xmlns="http://www.w3.org/2000/svg">
<path d="M27.4928 90.2305C27.4928 87.3301 27.6685 84.2539 28.0201 81.002C28.4596 77.75 29.1187 74.5859 29.9977 71.5098C30.9644 68.3457 32.151 65.3574 33.5572 62.5449C35.0514 59.6445 36.8092 57.1396 38.8307 55.0303C40.94 52.833 43.357 51.1191 46.0816 49.8887C48.8941 48.5703 52.0582 47.9111 55.5738 47.9111C58.65 47.9111 61.3746 48.79 63.7477 50.5479C66.1207 52.2178 68.1861 54.459 69.9439 57.2715C71.7018 59.9961 73.1519 63.1162 74.2945 66.6318C75.4371 70.1475 76.36 73.707 77.0631 77.3105C77.8541 80.8262 78.3814 84.2539 78.6451 87.5938C78.9088 90.8457 79.0406 93.6582 79.0406 96.0312C78.6891 101.217 77.942 106.007 76.7994 110.401C75.6568 114.708 74.0748 118.531 72.0533 121.871C70.1197 125.123 67.7027 127.804 64.8023 129.913C61.9019 132.022 58.3863 133.429 54.2555 134.132C50.3004 134.132 46.9166 133.429 44.1041 132.022C41.2916 130.616 38.8746 128.771 36.8531 126.485C34.8316 124.2 33.2057 121.563 31.9752 118.575C30.7447 115.587 29.7779 112.467 29.0748 109.215C28.4596 105.963 28.0201 102.711 27.7564 99.459C27.5807 96.1191 27.4928 93.043 27.4928 90.2305ZM32.5025 90.2305C32.5025 92.3398 32.5465 94.7129 32.6344 97.3496C32.7223 99.9863 32.942 102.667 33.2935 105.392C33.733 108.028 34.3482 110.665 35.1393 113.302C35.9303 115.851 36.985 118.136 38.3033 120.157C39.7096 122.091 41.4234 123.673 43.4449 124.903C45.5543 126.134 48.0592 126.749 50.9596 126.749C55.1783 127.013 58.65 126.485 61.3746 125.167C64.0992 123.849 66.2965 121.827 67.9664 119.103C69.6363 116.378 70.9107 113.082 71.7896 109.215C72.6685 105.348 73.3717 100.953 73.899 96.0312C73.899 94.0977 73.8111 91.6807 73.6353 88.7803C73.4596 85.8799 73.108 82.8477 72.5807 79.6836C72.1412 76.5195 71.482 73.3555 70.6031 70.1914C69.8121 66.9395 68.7135 64.0391 67.3072 61.4902C65.9889 58.8535 64.3629 56.7441 62.4293 55.1621C60.5836 53.5801 58.3424 52.7891 55.7057 52.7891C52.981 52.7891 50.5201 53.4482 48.3228 54.7666C46.1256 55.9971 44.148 57.667 42.3902 59.7764C40.7203 61.7979 39.2262 64.127 37.9078 66.7637C36.6773 69.4004 35.6666 72.125 34.8756 74.9375C34.0846 77.6621 33.4693 80.3867 33.0299 83.1113C32.6783 85.748 32.5025 88.1211 32.5025 90.2305ZM113.713 98.668H108.704L96.0475 73.3555V131.495L90.2467 132.286C90.0709 129.21 89.8951 125.343 89.7193 120.685C89.6314 116.026 89.4996 111.017 89.3238 105.655C89.2359 100.206 89.148 94.625 89.0602 88.9121C88.9723 83.1992 88.8844 77.7061 88.7965 72.4326C88.7086 67.1592 88.5768 62.3252 88.401 57.9307C88.3131 53.5361 88.1812 49.9766 88.0055 47.252C88.6207 47.252 89.192 47.208 89.7193 47.1201C90.3346 47.0322 90.8619 46.9883 91.3014 46.9883C91.7408 46.9004 92.1363 46.9443 92.4879 47.1201C92.8394 47.2959 93.1471 47.6914 93.4107 48.3066L111.209 88.3848L126.37 50.416C126.546 49.9766 126.853 49.625 127.293 49.3613C127.82 49.0098 128.347 48.7021 128.875 48.4385C129.49 48.1748 130.105 47.999 130.72 47.9111C131.336 47.7354 131.863 47.6475 132.302 47.6475C132.39 47.6475 132.434 47.7793 132.434 48.043C132.434 48.3066 132.522 49.2295 132.698 50.8115C132.874 52.3936 133.137 54.8984 133.489 58.3262C133.928 61.666 134.587 66.4561 135.466 72.6963C136.345 78.8486 137.444 86.7148 138.762 96.2949C140.169 105.787 141.926 117.521 144.036 131.495C143.684 132.286 143.201 132.813 142.586 133.077C142.058 133.341 141.531 133.429 141.004 133.341C140.564 133.253 140.125 133.077 139.685 132.813C139.334 132.462 139.114 132.022 139.026 131.495L129.006 60.6992L113.713 98.668ZM148.518 63.0723C149.924 61.0508 151.77 59.3369 154.055 57.9307C156.428 56.4365 159.021 55.2061 161.834 54.2393C164.734 53.2725 167.81 52.5254 171.062 51.998C174.402 51.4707 177.654 51.0752 180.818 50.8115C183.982 50.5479 187.058 50.3721 190.046 50.2842C193.035 50.1963 195.671 50.1523 197.957 50.1523C198.132 50.1523 198.528 50.1963 199.143 50.2842C199.758 50.2842 200.418 50.3281 201.121 50.416C201.824 50.416 202.439 50.416 202.966 50.416C203.582 50.416 204.021 50.416 204.285 50.416C204.636 52.3496 204.417 53.7119 203.626 54.5029C202.922 55.2061 201.956 55.6455 200.725 55.8213C199.583 55.9092 198.352 55.8652 197.034 55.6895C195.715 55.4258 194.749 55.3818 194.133 55.5576C193.254 55.6455 191.848 55.9092 189.915 56.3486C188.069 56.7002 186.004 57.1396 183.718 57.667C181.433 58.1064 178.972 58.6338 176.336 59.249C173.787 59.7764 171.326 60.3037 168.953 60.8311C166.668 61.2705 164.602 61.71 162.756 62.1494C160.911 62.5889 159.548 62.8965 158.67 63.0723C157.263 63.5996 156.472 64.2588 156.296 65.0498C156.121 65.8408 156.033 66.7637 156.033 67.8184C156.033 69.6641 156.121 71.7295 156.296 74.0146C156.56 76.2998 156.824 78.585 157.087 80.8701C157.439 83.0674 157.747 85.0889 158.01 86.9346C158.362 88.7803 158.582 90.1426 158.67 91.0215C159.021 91.1094 159.68 91.1533 160.647 91.1533C161.614 91.1533 162.273 91.1533 162.625 91.1533C164.646 91.1533 166.624 90.9775 168.557 90.626C170.491 90.2744 172.424 89.8789 174.358 89.4395C176.292 89 178.269 88.6484 180.291 88.3848C182.312 88.0332 184.378 87.8574 186.487 87.8574V92.7354C185.608 92.7354 184.378 92.8232 182.796 92.999C181.213 93.0869 179.456 93.3066 177.522 93.6582C175.676 94.0098 173.787 94.4053 171.853 94.8447C169.92 95.1963 168.162 95.5918 166.58 96.0312C164.998 96.4707 163.679 96.9102 162.625 97.3496C161.658 97.7891 161.174 98.2285 161.174 98.668V126.09C165.305 126.09 169.392 125.958 173.435 125.694C177.566 125.431 181.697 125.167 185.828 124.903C189.959 124.552 194.089 124.244 198.22 123.98C202.351 123.717 206.482 123.585 210.613 123.585C210.613 124.64 210.261 125.519 209.558 126.222C208.855 126.837 208.02 127.364 207.053 127.804C206.174 128.155 205.208 128.419 204.153 128.595C203.098 128.771 202.307 128.902 201.78 128.99C201.428 129.078 200.33 129.21 198.484 129.386C196.638 129.562 194.353 129.825 191.629 130.177C188.904 130.528 185.872 130.88 182.532 131.231C179.192 131.583 175.896 131.935 172.644 132.286C169.392 132.638 166.316 132.989 163.416 133.341C160.515 133.604 158.098 133.824 156.165 134C155.901 134.088 155.505 134.132 154.978 134.132C154.978 122.354 154.583 110.489 153.792 98.5361C153.088 86.4951 151.331 74.6738 148.518 63.0723ZM276.399 125.299C272.971 127.057 269.939 128.463 267.302 129.518C264.666 130.572 262.117 131.407 259.656 132.022C257.195 132.55 254.69 132.901 252.141 133.077C249.68 133.253 246.824 133.341 243.572 133.341C239.265 133.341 235.398 132.857 231.97 131.891C228.543 130.836 225.598 129.298 223.137 127.276C220.764 125.167 218.919 122.53 217.6 119.366C216.282 116.114 215.623 112.203 215.623 107.633C215.623 103.502 216.018 99.1514 216.809 94.5811C217.688 90.0107 218.919 85.4844 220.501 81.002C222.171 76.4316 224.192 72.0811 226.565 67.9502C229.026 63.7314 231.882 60.04 235.134 56.876C238.386 53.7119 242.034 51.207 246.077 49.3613C250.12 47.4277 254.602 46.4609 259.524 46.4609C261.37 46.4609 263.567 46.6807 266.116 47.1201C268.665 47.4717 271.082 48.1309 273.367 49.0977C275.74 49.9766 277.717 51.2949 279.299 53.0527C280.881 54.7227 281.672 56.876 281.672 59.5127C281.672 60.4795 281.189 60.9629 280.222 60.9629C279.343 60.875 278.201 60.5234 276.795 59.9082C275.476 59.293 273.938 58.502 272.18 57.5352C270.51 56.5684 268.884 55.6455 267.302 54.7666C265.72 53.8877 264.27 53.1406 262.952 52.5254C261.633 51.9102 260.623 51.6904 259.92 51.8662C255.701 51.8662 251.878 52.7012 248.45 54.3711C245.022 55.9531 241.902 58.1064 239.089 60.8311C236.365 63.5557 233.948 66.7197 231.838 70.3232C229.817 73.8389 228.103 77.5303 226.697 81.3975C225.379 85.2646 224.368 89.1318 223.665 92.999C223.049 96.7783 222.742 100.382 222.742 103.81C222.127 107.94 222.346 111.544 223.401 114.62C224.544 117.608 226.213 120.113 228.411 122.135C230.608 124.068 233.245 125.519 236.321 126.485C239.397 127.452 242.561 128.023 245.813 128.199C249.153 128.287 252.449 127.979 255.701 127.276C258.953 126.485 261.897 125.343 264.534 123.849C267.258 122.354 269.456 120.509 271.126 118.312C272.883 116.114 273.894 113.653 274.158 110.929C274.158 108.116 273.587 105.743 272.444 103.81C271.389 101.876 269.939 100.25 268.093 98.9316C266.336 97.6133 264.27 96.5586 261.897 95.7676C259.612 94.9766 257.239 94.3613 254.778 93.9219C252.405 93.4824 249.988 93.1748 247.527 92.999C245.154 92.8232 242.957 92.6035 240.935 92.3398V89.9668C240.935 89.791 242.078 89.4834 244.363 89.0439C246.736 88.6045 249.504 88.1211 252.669 87.5938C255.921 87.0664 259.26 86.5391 262.688 86.0117C266.116 85.4844 269.016 85.0889 271.389 84.8252C271.389 84.8252 271.609 84.8252 272.048 84.8252C272.488 84.7373 272.971 84.6934 273.499 84.6934C274.026 84.6934 274.553 84.6934 275.081 84.6934C275.608 84.6934 276.047 84.6934 276.399 84.6934C276.575 84.6934 276.882 84.6934 277.322 84.6934C277.849 84.6934 278.377 84.6934 278.904 84.6934C279.431 84.6934 279.915 84.7373 280.354 84.8252C280.881 84.8252 281.233 84.8252 281.409 84.8252C281.497 86.0557 281.585 88.0332 281.672 90.7578C281.848 93.3945 282.024 96.3828 282.2 99.7227C282.376 102.975 282.551 106.446 282.727 110.138C282.903 113.829 283.079 117.345 283.254 120.685C283.43 123.937 283.562 126.881 283.65 129.518C283.826 132.154 283.958 134.132 284.046 135.45C284.046 135.802 284.046 136.461 284.046 137.428C284.046 138.395 284.046 139.405 284.046 140.46C284.133 141.603 284.177 142.613 284.177 143.492C284.177 144.459 284.177 145.162 284.177 145.602H281.409L276.399 125.299ZM276.399 97.4814V89.4395C275.081 89.4395 273.718 89.791 272.312 90.4941C270.906 91.1094 269.719 91.7246 268.753 92.3398L276.399 97.4814ZM310.94 51.8662C314.192 51.8662 317.004 52.833 319.378 54.7666C321.838 56.6123 323.948 59.1172 325.706 62.2812C327.551 65.4453 329.089 69.0928 330.32 73.2236C331.55 77.3545 332.561 81.7051 333.352 86.2754C334.143 90.7578 334.758 95.3281 335.198 99.9863C335.637 104.557 335.945 108.863 336.121 112.906C336.296 116.949 336.384 120.597 336.384 123.849C336.472 127.101 336.516 129.649 336.516 131.495H333.352L328.342 103.678C327.903 103.238 326.892 102.975 325.31 102.887C323.816 102.799 322.014 102.843 319.905 103.019C317.883 103.194 315.642 103.458 313.181 103.81C310.808 104.073 308.523 104.293 306.326 104.469C304.216 104.557 302.283 104.601 300.525 104.601C298.767 104.513 297.493 104.205 296.702 103.678V131.495H289.978C289.978 131.231 289.978 130.748 289.978 130.045C290.066 129.254 290.11 128.463 290.11 127.672C290.11 126.881 290.154 126.134 290.242 125.431C290.33 124.728 290.374 124.244 290.374 123.98C290.901 118.883 291.296 113.741 291.56 108.556C291.912 103.282 292.307 98.1846 292.747 93.2627C293.186 88.3408 293.757 83.6387 294.461 79.1562C295.252 74.6738 296.35 70.6309 297.756 67.0273C299.163 63.3359 300.921 60.2158 303.03 57.667C305.139 55.0303 307.776 53.0967 310.94 51.8662ZM313.049 57.9307C310.764 57.9307 308.831 58.7656 307.249 60.4355C305.754 62.0176 304.524 64.127 303.557 66.7637C302.59 69.3125 301.843 72.1689 301.316 75.333C300.789 78.4971 300.437 81.6172 300.261 84.6934C300.086 87.6816 299.954 90.4941 299.866 93.1309C299.866 95.6797 299.866 97.6572 299.866 99.0635C304.172 99.0635 308.567 98.7559 313.049 98.1406C317.532 97.4375 321.751 96.7344 325.706 96.0312C325.794 95.6797 325.837 95.1084 325.837 94.3174C325.925 93.5264 325.969 92.6475 325.969 91.6807C326.057 90.7139 326.101 89.791 326.101 88.9121C326.189 88.0332 326.233 87.4619 326.233 87.1982C326.233 84.2979 326.057 81.5293 325.706 78.8926C325.442 76.2559 324.827 73.707 323.86 71.2461C322.981 68.6973 321.663 66.3242 319.905 64.127C318.235 61.9297 315.95 59.8643 313.049 57.9307Z" fill="white"/>
<path d="M151.049 155.069L152.719 182.93C155.326 182.93 157.934 182.769 160.541 182.447C163.178 182.095 165.873 181.773 168.627 181.48L168.803 182.93C168.773 182.93 168.495 182.974 167.968 183.062C167.47 183.121 166.796 183.208 165.946 183.326C165.126 183.414 164.188 183.516 163.134 183.633C162.079 183.75 161.024 183.868 159.97 183.985C158.915 184.102 157.904 184.219 156.938 184.336C155.971 184.454 155.136 184.542 154.433 184.6C154.403 184.6 154.33 184.6 154.213 184.6C154.096 184.629 153.964 184.644 153.817 184.644C153.671 184.644 153.524 184.644 153.378 184.644C153.231 184.644 153.114 184.644 153.026 184.644C152.382 184.644 151.854 184.307 151.444 183.633C151.034 182.93 150.697 181.993 150.434 180.821C150.17 179.62 149.979 178.257 149.862 176.734C149.745 175.181 149.657 173.57 149.599 171.9C149.54 170.23 149.511 168.545 149.511 166.846C149.54 165.147 149.555 163.55 149.555 162.056C149.555 160.533 149.54 159.156 149.511 157.925C149.511 156.695 149.467 155.743 149.379 155.069H151.049ZM170.473 153.707C170.473 153.355 170.59 153.077 170.824 152.872C171.088 152.637 171.396 152.52 171.747 152.52C171.776 152.52 171.85 152.52 171.967 152.52C172.084 152.52 172.157 152.52 172.187 152.52C172.333 154.981 172.465 157.325 172.582 159.551C172.699 161.749 172.787 163.917 172.846 166.055C172.934 168.194 172.992 170.333 173.021 172.471C173.051 174.581 173.065 176.792 173.065 179.107C173.065 179.429 173.08 179.869 173.109 180.425C173.168 180.982 173.212 181.524 173.241 182.051C173.3 182.579 173.344 183.062 173.373 183.501C173.432 183.912 173.461 184.131 173.461 184.161L171.571 184.512C171.513 183.311 171.454 181.934 171.396 180.381C171.337 178.799 171.278 177.129 171.22 175.372C171.19 173.584 171.146 171.753 171.088 169.878C171.059 167.974 171 166.099 170.912 164.253C170.854 162.408 170.78 160.635 170.692 158.936C170.634 157.208 170.561 155.64 170.473 154.234V153.707ZM174.384 160.738L175.087 158.453C175.116 158.423 175.336 158.394 175.746 158.365C176.186 158.306 176.757 158.248 177.46 158.189C178.163 158.101 178.954 158.013 179.833 157.925C180.712 157.837 181.605 157.75 182.514 157.662C183.451 157.574 184.359 157.486 185.238 157.398C186.146 157.31 186.981 157.222 187.743 157.134C187.743 157.134 187.875 157.134 188.139 157.134C188.402 157.134 188.695 157.134 189.018 157.134C189.34 157.134 189.647 157.134 189.94 157.134C190.233 157.134 190.424 157.134 190.512 157.134C191.215 157.134 191.698 157.266 191.962 157.53C192.226 157.793 192.357 158.365 192.357 159.244L184.359 160.167C184.301 162.012 184.33 163.946 184.447 165.967C184.564 167.989 184.711 170.04 184.887 172.12C185.062 174.17 185.224 176.207 185.37 178.228C185.546 180.25 185.634 182.183 185.634 184.029C185.634 184.292 185.546 184.483 185.37 184.6C185.224 184.688 185.033 184.747 184.799 184.776C184.594 184.805 184.374 184.791 184.14 184.732C183.905 184.703 183.7 184.659 183.524 184.6C183.437 184.219 183.349 183.56 183.261 182.623C183.173 181.685 183.085 180.586 182.997 179.327C182.909 178.067 182.821 176.705 182.733 175.24C182.646 173.775 182.558 172.31 182.47 170.845C182.382 169.38 182.294 167.989 182.206 166.67C182.118 165.323 182.045 164.151 181.986 163.155C181.928 162.129 181.869 161.338 181.811 160.782C181.781 160.225 181.752 160.02 181.723 160.167L174.384 160.738ZM191.742 160.958C192.211 160.284 192.826 159.712 193.588 159.244C194.379 158.746 195.243 158.335 196.181 158.013C197.147 157.691 198.173 157.442 199.257 157.266C200.37 157.09 201.454 156.958 202.509 156.871C203.563 156.783 204.589 156.724 205.585 156.695C206.581 156.666 207.46 156.651 208.222 156.651C208.28 156.651 208.412 156.666 208.617 156.695C208.822 156.695 209.042 156.709 209.276 156.739C209.511 156.739 209.716 156.739 209.892 156.739C210.097 156.739 210.243 156.739 210.331 156.739C210.448 157.383 210.375 157.837 210.111 158.101C209.877 158.335 209.555 158.482 209.145 158.541C208.764 158.57 208.354 158.555 207.914 158.497C207.475 158.409 207.152 158.394 206.947 158.453C206.654 158.482 206.186 158.57 205.541 158.716C204.926 158.833 204.237 158.98 203.476 159.156C202.714 159.302 201.894 159.478 201.015 159.683C200.165 159.859 199.345 160.035 198.554 160.21C197.792 160.357 197.104 160.503 196.488 160.65C195.873 160.796 195.419 160.899 195.126 160.958C194.657 161.133 194.394 161.353 194.335 161.617C194.276 161.88 194.247 162.188 194.247 162.54C194.247 163.155 194.276 163.843 194.335 164.605C194.423 165.367 194.511 166.128 194.599 166.89C194.716 167.623 194.818 168.296 194.906 168.912C195.023 169.527 195.097 169.981 195.126 170.274C195.243 170.303 195.463 170.318 195.785 170.318C196.107 170.318 196.327 170.318 196.444 170.318C197.118 170.318 197.777 170.259 198.422 170.142C199.066 170.025 199.711 169.893 200.355 169.747C201 169.6 201.659 169.483 202.333 169.395C203.007 169.278 203.695 169.219 204.398 169.219V170.845C204.105 170.845 203.695 170.875 203.168 170.933C202.641 170.962 202.055 171.036 201.41 171.153C200.795 171.27 200.165 171.402 199.521 171.548C198.876 171.666 198.29 171.797 197.763 171.944C197.235 172.09 196.796 172.237 196.444 172.383C196.122 172.53 195.961 172.676 195.961 172.823V181.963C197.338 181.963 198.7 181.919 200.048 181.832C201.425 181.744 202.802 181.656 204.179 181.568C205.556 181.451 206.933 181.348 208.31 181.26C209.687 181.172 211.063 181.128 212.44 181.128C212.44 181.48 212.323 181.773 212.089 182.007C211.854 182.212 211.576 182.388 211.254 182.535C210.961 182.652 210.639 182.74 210.287 182.798C209.936 182.857 209.672 182.901 209.496 182.93C209.379 182.959 209.013 183.003 208.397 183.062C207.782 183.121 207.021 183.208 206.112 183.326C205.204 183.443 204.193 183.56 203.08 183.677C201.967 183.794 200.868 183.912 199.784 184.029C198.7 184.146 197.675 184.263 196.708 184.38C195.741 184.468 194.936 184.542 194.291 184.6C194.203 184.629 194.071 184.644 193.896 184.644C193.896 180.718 193.764 176.763 193.5 172.779C193.266 168.765 192.68 164.825 191.742 160.958Z" fill="url(#paint0_linear_18_17)"/>
<defs>
<linearGradient id="paint0_linear_18_17" x1="108.8" y1="171.2" x2="252.8" y2="171.2" gradientUnits="userSpaceOnUse">
<stop stop-color="#3F58FF"/>
<stop offset="1" stop-color="#090071"/>
</linearGradient>
</defs>
</svg>
