<svg width="912" height="116" viewBox="0 0 912 116" fill="none" xmlns="http://www.w3.org/2000/svg">
<path d="M0 60.1172C0 57.2168 0.175781 54.1406 0.527344 50.8887C0.966797 47.6367 1.62598 44.4727 2.50488 41.3965C3.47168 38.2324 4.6582 35.2441 6.06445 32.4316C7.55859 29.5312 9.31641 27.0264 11.3379 24.917C13.4473 22.7197 15.8643 21.0059 18.5889 19.7754C21.4014 18.457 24.5654 17.7979 28.0811 17.7979C31.1572 17.7979 33.8818 18.6768 36.2549 20.4346C38.6279 22.1045 40.6934 24.3457 42.4512 27.1582C44.209 29.8828 45.6592 33.0029 46.8018 36.5186C47.9443 40.0342 48.8672 43.5938 49.5703 47.1973C50.3613 50.7129 50.8887 54.1406 51.1523 57.4805C51.416 60.7324 51.5479 63.5449 51.5479 65.918C51.1963 71.1035 50.4492 75.8936 49.3066 80.2881C48.1641 84.5947 46.582 88.418 44.5605 91.7578C42.627 95.0098 40.21 97.6904 37.3096 99.7998C34.4092 101.909 30.8936 103.315 26.7627 104.019C22.8076 104.019 19.4238 103.315 16.6113 101.909C13.7988 100.503 11.3818 98.6572 9.36035 96.3721C7.33887 94.0869 5.71289 91.4502 4.48242 88.4619C3.25195 85.4736 2.28516 82.3535 1.58203 79.1016C0.966797 75.8496 0.527344 72.5977 0.263672 69.3457C0.0878906 66.0059 0 62.9297 0 60.1172ZM5.00977 60.1172C5.00977 62.2266 5.05371 64.5996 5.1416 67.2363C5.22949 69.873 5.44922 72.5537 5.80078 75.2783C6.24023 77.915 6.85547 80.5518 7.64648 83.1885C8.4375 85.7373 9.49219 88.0225 10.8105 90.0439C12.2168 91.9775 13.9307 93.5596 15.9521 94.79C18.0615 96.0205 20.5664 96.6357 23.4668 96.6357C27.6855 96.8994 31.1572 96.3721 33.8818 95.0537C36.6064 93.7354 38.8037 91.7139 40.4736 88.9893C42.1436 86.2646 43.418 82.9688 44.2969 79.1016C45.1758 75.2344 45.8789 70.8398 46.4062 65.918C46.4062 63.9844 46.3184 61.5674 46.1426 58.667C45.9668 55.7666 45.6152 52.7344 45.0879 49.5703C44.6484 46.4062 43.9893 43.2422 43.1104 40.0781C42.3193 36.8262 41.2207 33.9258 39.8145 31.377C38.4961 28.7402 36.8701 26.6309 34.9365 25.0488C33.0908 23.4668 30.8496 22.6758 28.2129 22.6758C25.4883 22.6758 23.0273 23.335 20.8301 24.6533C18.6328 25.8838 16.6553 27.5537 14.8975 29.6631C13.2275 31.6846 11.7334 34.0137 10.415 36.6504C9.18457 39.2871 8.17383 42.0117 7.38281 44.8242C6.5918 47.5488 5.97656 50.2734 5.53711 52.998C5.18555 55.6348 5.00977 58.0078 5.00977 60.1172ZM86.2207 68.5547H81.2109L68.5547 43.2422V101.382L62.7539 102.173C62.5781 99.0967 62.4023 95.2295 62.2266 90.5713C62.1387 85.9131 62.0068 80.9033 61.8311 75.542C61.7432 70.0928 61.6553 64.5117 61.5674 58.7988C61.4795 53.0859 61.3916 47.5928 61.3037 42.3193C61.2158 37.0459 61.084 32.2119 60.9082 27.8174C60.8203 23.4229 60.6885 19.8633 60.5127 17.1387C61.1279 17.1387 61.6992 17.0947 62.2266 17.0068C62.8418 16.9189 63.3691 16.875 63.8086 16.875C64.248 16.7871 64.6436 16.8311 64.9951 17.0068C65.3467 17.1826 65.6543 17.5781 65.918 18.1934L83.7158 58.2715L98.877 20.3027C99.0527 19.8633 99.3604 19.5117 99.7998 19.248C100.327 18.8965 100.854 18.5889 101.382 18.3252C101.997 18.0615 102.612 17.8857 103.228 17.7979C103.843 17.6221 104.37 17.5342 104.81 17.5342C104.897 17.5342 104.941 17.666 104.941 17.9297C104.941 18.1934 105.029 19.1162 105.205 20.6982C105.381 22.2803 105.645 24.7852 105.996 28.2129C106.436 31.5527 107.095 36.3428 107.974 42.583C108.853 48.7354 109.951 56.6016 111.27 66.1816C112.676 75.6738 114.434 87.4072 116.543 101.382C116.191 102.173 115.708 102.7 115.093 102.964C114.565 103.228 114.038 103.315 113.511 103.228C113.071 103.14 112.632 102.964 112.192 102.7C111.841 102.349 111.621 101.909 111.533 101.382L101.514 30.5859L86.2207 68.5547ZM121.025 32.959C122.432 30.9375 124.277 29.2236 126.562 27.8174C128.936 26.3232 131.528 25.0928 134.341 24.126C137.241 23.1592 140.317 22.4121 143.569 21.8848C146.909 21.3574 150.161 20.9619 153.325 20.6982C156.489 20.4346 159.565 20.2588 162.554 20.1709C165.542 20.083 168.179 20.0391 170.464 20.0391C170.64 20.0391 171.035 20.083 171.65 20.1709C172.266 20.1709 172.925 20.2148 173.628 20.3027C174.331 20.3027 174.946 20.3027 175.474 20.3027C176.089 20.3027 176.528 20.3027 176.792 20.3027C177.144 22.2363 176.924 23.5986 176.133 24.3896C175.43 25.0928 174.463 25.5322 173.232 25.708C172.09 25.7959 170.859 25.752 169.541 25.5762C168.223 25.3125 167.256 25.2686 166.641 25.4443C165.762 25.5322 164.355 25.7959 162.422 26.2354C160.576 26.5869 158.511 27.0264 156.226 27.5537C153.94 27.9932 151.479 28.5205 148.843 29.1357C146.294 29.6631 143.833 30.1904 141.46 30.7178C139.175 31.1572 137.109 31.5967 135.264 32.0361C133.418 32.4756 132.056 32.7832 131.177 32.959C129.771 33.4863 128.979 34.1455 128.804 34.9365C128.628 35.7275 128.54 36.6504 128.54 37.7051C128.54 39.5508 128.628 41.6162 128.804 43.9014C129.067 46.1865 129.331 48.4717 129.595 50.7568C129.946 52.9541 130.254 54.9756 130.518 56.8213C130.869 58.667 131.089 60.0293 131.177 60.9082C131.528 60.9961 132.188 61.04 133.154 61.04C134.121 61.04 134.78 61.04 135.132 61.04C137.153 61.04 139.131 60.8643 141.064 60.5127C142.998 60.1611 144.932 59.7656 146.865 59.3262C148.799 58.8867 150.776 58.5352 152.798 58.2715C154.819 57.9199 156.885 57.7441 158.994 57.7441V62.6221C158.115 62.6221 156.885 62.71 155.303 62.8857C153.721 62.9736 151.963 63.1934 150.029 63.5449C148.184 63.8965 146.294 64.292 144.36 64.7314C142.427 65.083 140.669 65.4785 139.087 65.918C137.505 66.3574 136.187 66.7969 135.132 67.2363C134.165 67.6758 133.682 68.1152 133.682 68.5547V95.9766C137.812 95.9766 141.899 95.8447 145.942 95.5811C150.073 95.3174 154.204 95.0537 158.335 94.79C162.466 94.4385 166.597 94.1309 170.728 93.8672C174.858 93.6035 178.989 93.4717 183.12 93.4717C183.12 94.5264 182.769 95.4053 182.065 96.1084C181.362 96.7236 180.527 97.251 179.561 97.6904C178.682 98.042 177.715 98.3057 176.66 98.4814C175.605 98.6572 174.814 98.7891 174.287 98.877C173.936 98.9648 172.837 99.0967 170.991 99.2725C169.146 99.4482 166.86 99.7119 164.136 100.063C161.411 100.415 158.379 100.767 155.039 101.118C151.699 101.47 148.403 101.821 145.151 102.173C141.899 102.524 138.823 102.876 135.923 103.228C133.022 103.491 130.605 103.711 128.672 103.887C128.408 103.975 128.013 104.019 127.485 104.019C127.485 92.2412 127.09 80.376 126.299 68.4229C125.596 56.3818 123.838 44.5605 121.025 32.959ZM248.906 95.1855C245.479 96.9434 242.446 98.3496 239.81 99.4043C237.173 100.459 234.624 101.294 232.163 101.909C229.702 102.437 227.197 102.788 224.648 102.964C222.188 103.14 219.331 103.228 216.079 103.228C211.772 103.228 207.905 102.744 204.478 101.777C201.05 100.723 198.105 99.1846 195.645 97.1631C193.271 95.0537 191.426 92.417 190.107 89.2529C188.789 86.001 188.13 82.0898 188.13 77.5195C188.13 73.3887 188.525 69.0381 189.316 64.4678C190.195 59.8975 191.426 55.3711 193.008 50.8887C194.678 46.3184 196.699 41.9678 199.072 37.8369C201.533 33.6182 204.39 29.9268 207.642 26.7627C210.894 23.5986 214.541 21.0938 218.584 19.248C222.627 17.3145 227.109 16.3477 232.031 16.3477C233.877 16.3477 236.074 16.5674 238.623 17.0068C241.172 17.3584 243.589 18.0176 245.874 18.9844C248.247 19.8633 250.225 21.1816 251.807 22.9395C253.389 24.6094 254.18 26.7627 254.18 29.3994C254.18 30.3662 253.696 30.8496 252.729 30.8496C251.851 30.7617 250.708 30.4102 249.302 29.7949C247.983 29.1797 246.445 28.3887 244.688 27.4219C243.018 26.4551 241.392 25.5322 239.81 24.6533C238.228 23.7744 236.777 23.0273 235.459 22.4121C234.141 21.7969 233.13 21.5771 232.427 21.7529C228.208 21.7529 224.385 22.5879 220.957 24.2578C217.529 25.8398 214.409 27.9932 211.597 30.7178C208.872 33.4424 206.455 36.6064 204.346 40.21C202.324 43.7256 200.61 47.417 199.204 51.2842C197.886 55.1514 196.875 59.0186 196.172 62.8857C195.557 66.665 195.249 70.2686 195.249 73.6963C194.634 77.8271 194.854 81.4307 195.908 84.5068C197.051 87.4951 198.721 90 200.918 92.0215C203.115 93.9551 205.752 95.4053 208.828 96.3721C211.904 97.3389 215.068 97.9102 218.32 98.0859C221.66 98.1738 224.956 97.8662 228.208 97.1631C231.46 96.3721 234.404 95.2295 237.041 93.7354C239.766 92.2412 241.963 90.3955 243.633 88.1982C245.391 86.001 246.401 83.54 246.665 80.8154C246.665 78.0029 246.094 75.6299 244.951 73.6963C243.896 71.7627 242.446 70.1367 240.601 68.8184C238.843 67.5 236.777 66.4453 234.404 65.6543C232.119 64.8633 229.746 64.248 227.285 63.8086C224.912 63.3691 222.495 63.0615 220.034 62.8857C217.661 62.71 215.464 62.4902 213.442 62.2266V59.8535C213.442 59.6777 214.585 59.3701 216.87 58.9307C219.243 58.4912 222.012 58.0078 225.176 57.4805C228.428 56.9531 231.768 56.4258 235.195 55.8984C238.623 55.3711 241.523 54.9756 243.896 54.7119C243.896 54.7119 244.116 54.7119 244.556 54.7119C244.995 54.624 245.479 54.5801 246.006 54.5801C246.533 54.5801 247.061 54.5801 247.588 54.5801C248.115 54.5801 248.555 54.5801 248.906 54.5801C249.082 54.5801 249.39 54.5801 249.829 54.5801C250.356 54.5801 250.884 54.5801 251.411 54.5801C251.938 54.5801 252.422 54.624 252.861 54.7119C253.389 54.7119 253.74 54.7119 253.916 54.7119C254.004 55.9424 254.092 57.9199 254.18 60.6445C254.355 63.2812 254.531 66.2695 254.707 69.6094C254.883 72.8613 255.059 76.333 255.234 80.0244C255.41 83.7158 255.586 87.2314 255.762 90.5713C255.938 93.8232 256.069 96.7676 256.157 99.4043C256.333 102.041 256.465 104.019 256.553 105.337C256.553 105.688 256.553 106.348 256.553 107.314C256.553 108.281 256.553 109.292 256.553 110.347C256.641 111.489 256.685 112.5 256.685 113.379C256.685 114.346 256.685 115.049 256.685 115.488H253.916L248.906 95.1855ZM248.906 67.3682V59.3262C247.588 59.3262 246.226 59.6777 244.819 60.3809C243.413 60.9961 242.227 61.6113 241.26 62.2266L248.906 67.3682ZM283.447 21.7529C286.699 21.7529 289.512 22.7197 291.885 24.6533C294.346 26.499 296.455 29.0039 298.213 32.168C300.059 35.332 301.597 38.9795 302.827 43.1104C304.058 47.2412 305.068 51.5918 305.859 56.1621C306.65 60.6445 307.266 65.2148 307.705 69.873C308.145 74.4434 308.452 78.75 308.628 82.793C308.804 86.8359 308.892 90.4834 308.892 93.7354C308.979 96.9873 309.023 99.5361 309.023 101.382H305.859L300.85 73.5645C300.41 73.125 299.399 72.8613 297.817 72.7734C296.323 72.6855 294.521 72.7295 292.412 72.9053C290.391 73.0811 288.149 73.3447 285.688 73.6963C283.315 73.96 281.03 74.1797 278.833 74.3555C276.724 74.4434 274.79 74.4873 273.032 74.4873C271.274 74.3994 270 74.0918 269.209 73.5645V101.382H262.485C262.485 101.118 262.485 100.635 262.485 99.9316C262.573 99.1406 262.617 98.3496 262.617 97.5586C262.617 96.7676 262.661 96.0205 262.749 95.3174C262.837 94.6143 262.881 94.1309 262.881 93.8672C263.408 88.7695 263.804 83.6279 264.067 78.4424C264.419 73.1689 264.814 68.0713 265.254 63.1494C265.693 58.2275 266.265 53.5254 266.968 49.043C267.759 44.5605 268.857 40.5176 270.264 36.9141C271.67 33.2227 273.428 30.1025 275.537 27.5537C277.646 24.917 280.283 22.9834 283.447 21.7529ZM285.557 27.8174C283.271 27.8174 281.338 28.6523 279.756 30.3223C278.262 31.9043 277.031 34.0137 276.064 36.6504C275.098 39.1992 274.351 42.0557 273.823 45.2197C273.296 48.3838 272.944 51.5039 272.769 54.5801C272.593 57.5684 272.461 60.3809 272.373 63.0176C272.373 65.5664 272.373 67.5439 272.373 68.9502C276.68 68.9502 281.074 68.6426 285.557 68.0273C290.039 67.3242 294.258 66.6211 298.213 65.918C298.301 65.5664 298.345 64.9951 298.345 64.2041C298.433 63.4131 298.477 62.5342 298.477 61.5674C298.564 60.6006 298.608 59.6777 298.608 58.7988C298.696 57.9199 298.74 57.3486 298.74 57.085C298.74 54.1846 298.564 51.416 298.213 48.7793C297.949 46.1426 297.334 43.5938 296.367 41.1328C295.488 38.584 294.17 36.2109 292.412 34.0137C290.742 31.8164 288.457 29.751 285.557 27.8174Z" fill="white"/>
<path d="M364.658 32.959C366.064 30.9375 367.91 29.2236 370.195 27.8174C372.568 26.3232 375.161 25.0928 377.974 24.126C380.874 23.1592 383.95 22.4121 387.202 21.8848C390.542 21.3574 393.794 20.9619 396.958 20.6982C400.122 20.4346 403.198 20.2588 406.187 20.1709C409.175 20.083 411.812 20.0391 414.097 20.0391C414.272 20.0391 414.668 20.083 415.283 20.1709C415.898 20.1709 416.558 20.2148 417.261 20.3027C417.964 20.3027 418.579 20.3027 419.106 20.3027C419.722 20.3027 420.161 20.3027 420.425 20.3027C420.776 22.2363 420.557 23.5986 419.766 24.3896C419.062 25.0928 418.096 25.5322 416.865 25.708C415.723 25.7959 414.492 25.752 413.174 25.5762C411.855 25.3125 410.889 25.2686 410.273 25.4443C409.395 25.5322 407.988 25.7959 406.055 26.2354C404.209 26.5869 402.144 27.0264 399.858 27.5537C397.573 27.9932 395.112 28.5205 392.476 29.1357C389.927 29.6631 387.466 30.1904 385.093 30.7178C382.808 31.1572 380.742 31.5967 378.896 32.0361C377.051 32.4756 375.688 32.7832 374.81 32.959C373.403 33.4863 372.612 34.1455 372.437 34.9365C372.261 35.7275 372.173 36.6504 372.173 37.7051C372.173 39.5508 372.261 41.6162 372.437 43.9014C372.7 46.1865 372.964 48.4717 373.228 50.7568C373.579 52.9541 373.887 54.9756 374.15 56.8213C374.502 58.667 374.722 60.0293 374.81 60.9082C375.161 60.9961 375.82 61.04 376.787 61.04C377.754 61.04 378.413 61.04 378.765 61.04C380.786 61.04 382.764 60.8643 384.697 60.5127C386.631 60.1611 388.564 59.7656 390.498 59.3262C392.432 58.8867 394.409 58.5352 396.431 58.2715C398.452 57.9199 400.518 57.7441 402.627 57.7441V62.6221C401.748 62.6221 400.518 62.71 398.936 62.8857C397.354 62.9736 395.596 63.1934 393.662 63.5449C391.816 63.8965 389.927 64.292 387.993 64.7314C386.06 65.083 384.302 65.4785 382.72 65.918C381.138 66.3574 379.819 66.7969 378.765 67.2363C377.798 67.6758 377.314 68.1152 377.314 68.5547V95.9766C381.445 95.9766 385.532 95.8447 389.575 95.5811C393.706 95.3174 397.837 95.0537 401.968 94.79C406.099 94.4385 410.229 94.1309 414.36 93.8672C418.491 93.6035 422.622 93.4717 426.753 93.4717C426.753 94.5264 426.401 95.4053 425.698 96.1084C424.995 96.7236 424.16 97.251 423.193 97.6904C422.314 98.042 421.348 98.3057 420.293 98.4814C419.238 98.6572 418.447 98.7891 417.92 98.877C417.568 98.9648 416.47 99.0967 414.624 99.2725C412.778 99.4482 410.493 99.7119 407.769 100.063C405.044 100.415 402.012 100.767 398.672 101.118C395.332 101.47 392.036 101.821 388.784 102.173C385.532 102.524 382.456 102.876 379.556 103.228C376.655 103.491 374.238 103.711 372.305 103.887C372.041 103.975 371.646 104.019 371.118 104.019C371.118 92.2412 370.723 80.376 369.932 68.4229C369.229 56.3818 367.471 44.5605 364.658 32.959ZM430.972 69.7412C430.972 67.0166 431.235 63.9844 431.763 60.6445C432.378 57.2168 433.257 53.7891 434.399 50.3613C435.542 46.8457 436.948 43.4619 438.618 40.21C440.376 36.8701 442.354 33.9258 444.551 31.377C446.836 28.7402 449.385 26.6309 452.197 25.0488C455.098 23.4668 458.262 22.6758 461.689 22.6758C464.15 22.6758 466.216 23.1592 467.886 24.126C469.644 25.0928 471.05 26.3672 472.104 27.9492C473.159 29.5312 473.906 31.333 474.346 33.3545C474.873 35.2881 475.137 37.2656 475.137 39.2871C473.203 39.2871 471.753 38.7158 470.786 37.5732C469.819 36.3428 468.896 35.0244 468.018 33.6182C467.227 32.124 466.26 30.8057 465.117 29.6631C464.062 28.4326 462.437 27.8174 460.239 27.8174C457.339 27.8174 454.746 28.6084 452.461 30.1904C450.264 31.7725 448.33 33.8379 446.66 36.3867C444.99 38.8477 443.584 41.6602 442.441 44.8242C441.387 47.9883 440.508 51.1523 439.805 54.3164C439.189 57.4805 438.75 60.5566 438.486 63.5449C438.223 66.4453 438.091 68.9062 438.091 70.9277C437.739 73.916 437.695 77.0361 437.959 80.2881C438.311 83.4521 439.058 86.3965 440.2 89.1211C441.343 91.7578 443.013 93.999 445.21 95.8447C447.407 97.6025 450.308 98.6133 453.911 98.877C456.196 98.877 458.745 98.5254 461.558 97.8223C464.37 97.0312 467.139 96.1523 469.863 95.1855C472.676 94.1309 475.356 93.0322 477.905 91.8896C480.454 90.6592 482.607 89.6045 484.365 88.7256V93.8672C484.277 93.8672 483.706 94.0869 482.651 94.5264C481.685 94.8779 480.366 95.3613 478.696 95.9766C477.114 96.5918 475.269 97.251 473.159 97.9541C471.138 98.6572 469.116 99.4043 467.095 100.195C465.073 100.898 463.096 101.602 461.162 102.305C459.316 102.92 457.734 103.447 456.416 103.887C456.328 103.887 456.152 103.887 455.889 103.887C455.625 103.975 455.405 104.019 455.229 104.019C450.396 104.019 446.396 103.008 443.232 100.986C440.156 98.877 437.695 96.1963 435.85 92.9443C434.004 89.6045 432.729 85.9131 432.026 81.8701C431.323 77.7393 430.972 73.6963 430.972 69.7412ZM489.111 60.1172C489.111 57.2168 489.287 54.1406 489.639 50.8887C490.078 47.6367 490.737 44.4727 491.616 41.3965C492.583 38.2324 493.77 35.2441 495.176 32.4316C496.67 29.5312 498.428 27.0264 500.449 24.917C502.559 22.7197 504.976 21.0059 507.7 19.7754C510.513 18.457 513.677 17.7979 517.192 17.7979C520.269 17.7979 522.993 18.6768 525.366 20.4346C527.739 22.1045 529.805 24.3457 531.562 27.1582C533.32 29.8828 534.771 33.0029 535.913 36.5186C537.056 40.0342 537.979 43.5938 538.682 47.1973C539.473 50.7129 540 54.1406 540.264 57.4805C540.527 60.7324 540.659 63.5449 540.659 65.918C540.308 71.1035 539.561 75.8936 538.418 80.2881C537.275 84.5947 535.693 88.418 533.672 91.7578C531.738 95.0098 529.321 97.6904 526.421 99.7998C523.521 101.909 520.005 103.315 515.874 104.019C511.919 104.019 508.535 103.315 505.723 101.909C502.91 100.503 500.493 98.6572 498.472 96.3721C496.45 94.0869 494.824 91.4502 493.594 88.4619C492.363 85.4736 491.396 82.3535 490.693 79.1016C490.078 75.8496 489.639 72.5977 489.375 69.3457C489.199 66.0059 489.111 62.9297 489.111 60.1172ZM494.121 60.1172C494.121 62.2266 494.165 64.5996 494.253 67.2363C494.341 69.873 494.561 72.5537 494.912 75.2783C495.352 77.915 495.967 80.5518 496.758 83.1885C497.549 85.7373 498.604 88.0225 499.922 90.0439C501.328 91.9775 503.042 93.5596 505.063 94.79C507.173 96.0205 509.678 96.6357 512.578 96.6357C516.797 96.8994 520.269 96.3721 522.993 95.0537C525.718 93.7354 527.915 91.7139 529.585 88.9893C531.255 86.2646 532.529 82.9688 533.408 79.1016C534.287 75.2344 534.99 70.8398 535.518 65.918C535.518 63.9844 535.43 61.5674 535.254 58.667C535.078 55.7666 534.727 52.7344 534.199 49.5703C533.76 46.4062 533.101 43.2422 532.222 40.0781C531.431 36.8262 530.332 33.9258 528.926 31.377C527.607 28.7402 525.981 26.6309 524.048 25.0488C522.202 23.4668 519.961 22.6758 517.324 22.6758C514.6 22.6758 512.139 23.335 509.941 24.6533C507.744 25.8838 505.767 27.5537 504.009 29.6631C502.339 31.6846 500.845 34.0137 499.526 36.6504C498.296 39.2871 497.285 42.0117 496.494 44.8242C495.703 47.5488 495.088 50.2734 494.648 52.998C494.297 55.6348 494.121 58.0078 494.121 60.1172ZM551.997 93.8672C552.437 92.8125 553.096 92.1533 553.975 91.8896C554.941 91.626 555.952 92.2852 557.007 93.8672C557.007 94.043 557.402 94.3066 558.193 94.6582C559.072 94.9219 560.127 95.2734 561.357 95.7129C562.676 96.0645 564.17 96.46 565.84 96.8994C567.598 97.251 569.312 97.6025 570.981 97.9541C572.651 98.2178 574.277 98.4814 575.859 98.7451C577.441 98.9209 578.804 99.0088 579.946 99.0088C582.935 99.0088 585.659 98.3936 588.12 97.1631C590.669 95.8447 592.822 94.1748 594.58 92.1533C596.426 90.1318 597.832 87.8467 598.799 85.2979C599.766 82.6611 600.249 79.9805 600.249 77.2559C600.249 76.4648 600.117 75.1025 599.854 73.1689C599.59 71.1475 599.15 69.1699 598.535 67.2363C597.92 65.2148 597.085 63.4131 596.03 61.8311C595.063 60.249 593.877 59.458 592.471 59.458C583.33 60.5127 575.815 60.9521 569.927 60.7764C564.126 60.5127 559.512 59.8096 556.084 58.667C552.656 57.5244 550.239 55.9863 548.833 54.0527C547.515 52.0312 546.812 49.7461 546.724 47.1973C546.724 44.0332 547.515 41.001 549.097 38.1006C550.679 35.1123 552.7 32.4756 555.161 30.1904C557.622 27.9053 560.347 26.1035 563.335 24.7852C566.411 23.3789 569.443 22.6758 572.432 22.6758C574.893 22.6758 577.441 22.9834 580.078 23.5986C582.803 24.2139 585.308 25.1807 587.593 26.499C589.878 27.7295 591.724 29.3994 593.13 31.5088C594.624 33.5303 595.371 35.9912 595.371 38.8916C593.262 38.8916 591.328 38.3203 589.57 37.1777C587.812 35.9473 586.055 34.6729 584.297 33.3545C582.539 32.0361 580.693 30.8057 578.76 29.6631C576.826 28.4326 574.585 27.8174 572.036 27.8174C569.927 27.8174 567.773 28.3447 565.576 29.3994C563.467 30.4541 561.533 31.8164 559.775 33.4863C558.105 35.1562 556.699 37.0459 555.557 39.1553C554.502 41.1768 553.975 43.2861 553.975 45.4834C553.975 46.3623 553.975 47.3291 553.975 48.3838C554.062 49.3506 554.282 50.3174 554.634 51.2842C554.985 52.1631 555.513 52.9102 556.216 53.5254C557.007 54.1406 558.105 54.4482 559.512 54.4482H594.976C596.47 54.4482 597.744 54.9316 598.799 55.8984C599.941 56.7773 600.864 57.9199 601.567 59.3262C602.358 60.7324 602.974 62.3145 603.413 64.0723C603.94 65.8301 604.336 67.5439 604.6 69.2139C604.951 70.8838 605.171 72.4658 605.259 73.96C605.347 75.3662 605.391 76.4648 605.391 77.2559C605.391 80.6836 604.907 83.9355 603.94 87.0117C602.974 90 601.523 92.7246 599.59 95.1855C597.656 97.5586 595.239 99.5361 592.339 101.118C589.438 102.612 586.099 103.535 582.319 103.887C580.474 104.062 578.057 104.019 575.068 103.755C572.168 103.491 569.224 103.008 566.235 102.305C563.247 101.514 560.435 100.459 557.798 99.1406C555.161 97.7344 553.228 95.9766 551.997 93.8672ZM648.105 60.9082C646.787 58.9746 644.985 56.6016 642.7 53.7891C640.503 50.9766 638.13 47.9443 635.581 44.6924C633.032 41.3525 630.396 37.9248 627.671 34.4092C624.946 30.8936 622.397 27.5098 620.024 24.2578C617.739 20.918 615.718 17.8418 613.96 15.0293C612.202 12.1289 610.928 9.66797 610.137 7.64648L612.773 5.27344C616.025 8.78906 618.838 12.041 621.211 15.0293C623.672 17.9297 625.869 20.6982 627.803 23.335C629.736 25.8838 631.494 28.3447 633.076 30.7178C634.658 33.0908 636.284 35.5078 637.954 37.9688C639.712 40.3418 641.602 42.8027 643.623 45.3516C645.645 47.8125 648.018 50.4492 650.742 53.2617C651.27 50.8008 651.753 48.0762 652.192 45.0879C652.72 42.0117 653.247 38.8477 653.774 35.5957C654.302 32.3438 654.873 29.0479 655.488 25.708C656.104 22.2803 656.807 19.0283 657.598 15.9521C658.389 12.7881 659.224 9.84375 660.103 7.11914C661.069 4.39453 662.168 2.06543 663.398 0.131836C663.486 0.0439453 663.662 0 663.926 0C664.277 0 664.541 0 664.717 0C664.98 0 665.332 0.0439453 665.771 0.131836C666.299 0.219727 666.782 0.395508 667.222 0.65918C667.661 0.834961 668.013 1.09863 668.276 1.4502C668.54 1.80176 668.584 2.19727 668.408 2.63672C667.441 4.6582 666.431 7.38281 665.376 10.8105C664.409 14.2383 663.442 18.1055 662.476 22.4121C661.597 26.6309 660.762 31.2451 659.971 36.2549C659.18 41.1768 658.433 46.1865 657.729 51.2842C657.114 56.3818 656.543 61.4795 656.016 66.5771C655.488 71.5869 655.093 76.2891 654.829 80.6836C654.565 85.0781 654.434 89.0771 654.434 92.6807C654.521 96.2842 654.741 99.1846 655.093 101.382C654.917 102.349 654.741 103.096 654.565 103.623C654.478 104.062 654.214 104.414 653.774 104.678C653.335 104.941 652.676 105.073 651.797 105.073C650.918 105.161 649.688 105.205 648.105 105.205V60.9082ZM676.45 93.8672C676.89 92.8125 677.549 92.1533 678.428 91.8896C679.395 91.626 680.405 92.2852 681.46 93.8672C681.46 94.043 681.855 94.3066 682.646 94.6582C683.525 94.9219 684.58 95.2734 685.811 95.7129C687.129 96.0645 688.623 96.46 690.293 96.8994C692.051 97.251 693.765 97.6025 695.435 97.9541C697.104 98.2178 698.73 98.4814 700.312 98.7451C701.895 98.9209 703.257 99.0088 704.399 99.0088C707.388 99.0088 710.112 98.3936 712.573 97.1631C715.122 95.8447 717.275 94.1748 719.033 92.1533C720.879 90.1318 722.285 87.8467 723.252 85.2979C724.219 82.6611 724.702 79.9805 724.702 77.2559C724.702 76.4648 724.57 75.1025 724.307 73.1689C724.043 71.1475 723.604 69.1699 722.988 67.2363C722.373 65.2148 721.538 63.4131 720.483 61.8311C719.517 60.249 718.33 59.458 716.924 59.458C707.783 60.5127 700.269 60.9521 694.38 60.7764C688.579 60.5127 683.965 59.8096 680.537 58.667C677.109 57.5244 674.692 55.9863 673.286 54.0527C671.968 52.0312 671.265 49.7461 671.177 47.1973C671.177 44.0332 671.968 41.001 673.55 38.1006C675.132 35.1123 677.153 32.4756 679.614 30.1904C682.075 27.9053 684.8 26.1035 687.788 24.7852C690.864 23.3789 693.896 22.6758 696.885 22.6758C699.346 22.6758 701.895 22.9834 704.531 23.5986C707.256 24.2139 709.761 25.1807 712.046 26.499C714.331 27.7295 716.177 29.3994 717.583 31.5088C719.077 33.5303 719.824 35.9912 719.824 38.8916C717.715 38.8916 715.781 38.3203 714.023 37.1777C712.266 35.9473 710.508 34.6729 708.75 33.3545C706.992 32.0361 705.146 30.8057 703.213 29.6631C701.279 28.4326 699.038 27.8174 696.489 27.8174C694.38 27.8174 692.227 28.3447 690.029 29.3994C687.92 30.4541 685.986 31.8164 684.229 33.4863C682.559 35.1562 681.152 37.0459 680.01 39.1553C678.955 41.1768 678.428 43.2861 678.428 45.4834C678.428 46.3623 678.428 47.3291 678.428 48.3838C678.516 49.3506 678.735 50.3174 679.087 51.2842C679.438 52.1631 679.966 52.9102 680.669 53.5254C681.46 54.1406 682.559 54.4482 683.965 54.4482H719.429C720.923 54.4482 722.197 54.9316 723.252 55.8984C724.395 56.7773 725.317 57.9199 726.021 59.3262C726.812 60.7324 727.427 62.3145 727.866 64.0723C728.394 65.8301 728.789 67.5439 729.053 69.2139C729.404 70.8838 729.624 72.4658 729.712 73.96C729.8 75.3662 729.844 76.4648 729.844 77.2559C729.844 80.6836 729.36 83.9355 728.394 87.0117C727.427 90 725.977 92.7246 724.043 95.1855C722.109 97.5586 719.692 99.5361 716.792 101.118C713.892 102.612 710.552 103.535 706.772 103.887C704.927 104.062 702.51 104.019 699.521 103.755C696.621 103.491 693.677 103.008 690.688 102.305C687.7 101.514 684.888 100.459 682.251 99.1406C679.614 97.7344 677.681 95.9766 676.45 93.8672ZM734.458 32.2998L736.567 25.4443C736.655 25.3564 737.314 25.2686 738.545 25.1807C739.863 25.0049 741.577 24.8291 743.687 24.6533C745.796 24.3896 748.169 24.126 750.806 23.8623C753.442 23.5986 756.123 23.335 758.848 23.0713C761.66 22.8076 764.385 22.5439 767.021 22.2803C769.746 22.0166 772.251 21.7529 774.536 21.4893C774.536 21.4893 774.932 21.4893 775.723 21.4893C776.514 21.4893 777.393 21.4893 778.359 21.4893C779.326 21.4893 780.249 21.4893 781.128 21.4893C782.007 21.4893 782.578 21.4893 782.842 21.4893C784.951 21.4893 786.401 21.8848 787.192 22.6758C787.983 23.4668 788.379 25.1807 788.379 27.8174L764.385 30.5859C764.209 36.123 764.297 41.9238 764.648 47.9883C765 54.0527 765.439 60.2051 765.967 66.4453C766.494 72.5977 766.978 78.7061 767.417 84.7705C767.944 90.835 768.208 96.6357 768.208 102.173C768.208 102.964 767.944 103.535 767.417 103.887C766.978 104.15 766.406 104.326 765.703 104.414C765.088 104.502 764.429 104.458 763.726 104.282C763.022 104.194 762.407 104.062 761.88 103.887C761.616 102.744 761.353 100.767 761.089 97.9541C760.825 95.1416 760.562 91.8457 760.298 88.0664C760.034 84.2871 759.771 80.2002 759.507 75.8057C759.243 71.4111 758.979 67.0166 758.716 62.6221C758.452 58.2275 758.188 54.0527 757.925 50.0977C757.661 46.0547 757.441 42.5391 757.266 39.5508C757.09 36.4746 756.914 34.1016 756.738 32.4316C756.65 30.7617 756.562 30.1465 756.475 30.5859L734.458 32.2998ZM786.533 32.959C787.939 30.9375 789.785 29.2236 792.07 27.8174C794.443 26.3232 797.036 25.0928 799.849 24.126C802.749 23.1592 805.825 22.4121 809.077 21.8848C812.417 21.3574 815.669 20.9619 818.833 20.6982C821.997 20.4346 825.073 20.2588 828.062 20.1709C831.05 20.083 833.687 20.0391 835.972 20.0391C836.147 20.0391 836.543 20.083 837.158 20.1709C837.773 20.1709 838.433 20.2148 839.136 20.3027C839.839 20.3027 840.454 20.3027 840.981 20.3027C841.597 20.3027 842.036 20.3027 842.3 20.3027C842.651 22.2363 842.432 23.5986 841.641 24.3896C840.938 25.0928 839.971 25.5322 838.74 25.708C837.598 25.7959 836.367 25.752 835.049 25.5762C833.73 25.3125 832.764 25.2686 832.148 25.4443C831.27 25.5322 829.863 25.7959 827.93 26.2354C826.084 26.5869 824.019 27.0264 821.733 27.5537C819.448 27.9932 816.987 28.5205 814.351 29.1357C811.802 29.6631 809.341 30.1904 806.968 30.7178C804.683 31.1572 802.617 31.5967 800.771 32.0361C798.926 32.4756 797.563 32.7832 796.685 32.959C795.278 33.4863 794.487 34.1455 794.312 34.9365C794.136 35.7275 794.048 36.6504 794.048 37.7051C794.048 39.5508 794.136 41.6162 794.312 43.9014C794.575 46.1865 794.839 48.4717 795.103 50.7568C795.454 52.9541 795.762 54.9756 796.025 56.8213C796.377 58.667 796.597 60.0293 796.685 60.9082C797.036 60.9961 797.695 61.04 798.662 61.04C799.629 61.04 800.288 61.04 800.64 61.04C802.661 61.04 804.639 60.8643 806.572 60.5127C808.506 60.1611 810.439 59.7656 812.373 59.3262C814.307 58.8867 816.284 58.5352 818.306 58.2715C820.327 57.9199 822.393 57.7441 824.502 57.7441V62.6221C823.623 62.6221 822.393 62.71 820.811 62.8857C819.229 62.9736 817.471 63.1934 815.537 63.5449C813.691 63.8965 811.802 64.292 809.868 64.7314C807.935 65.083 806.177 65.4785 804.595 65.918C803.013 66.3574 801.694 66.7969 800.64 67.2363C799.673 67.6758 799.189 68.1152 799.189 68.5547V95.9766C803.32 95.9766 807.407 95.8447 811.45 95.5811C815.581 95.3174 819.712 95.0537 823.843 94.79C827.974 94.4385 832.104 94.1309 836.235 93.8672C840.366 93.6035 844.497 93.4717 848.628 93.4717C848.628 94.5264 848.276 95.4053 847.573 96.1084C846.87 96.7236 846.035 97.251 845.068 97.6904C844.189 98.042 843.223 98.3057 842.168 98.4814C841.113 98.6572 840.322 98.7891 839.795 98.877C839.443 98.9648 838.345 99.0967 836.499 99.2725C834.653 99.4482 832.368 99.7119 829.644 100.063C826.919 100.415 823.887 100.767 820.547 101.118C817.207 101.47 813.911 101.821 810.659 102.173C807.407 102.524 804.331 102.876 801.431 103.228C798.53 103.491 796.113 103.711 794.18 103.887C793.916 103.975 793.521 104.019 792.993 104.019C792.993 92.2412 792.598 80.376 791.807 68.4229C791.104 56.3818 789.346 44.5605 786.533 32.959ZM881.455 68.5547H876.445L863.789 43.2422V101.382L857.988 102.173C857.812 99.0967 857.637 95.2295 857.461 90.5713C857.373 85.9131 857.241 80.9033 857.065 75.542C856.978 70.0928 856.89 64.5117 856.802 58.7988C856.714 53.0859 856.626 47.5928 856.538 42.3193C856.45 37.0459 856.318 32.2119 856.143 27.8174C856.055 23.4229 855.923 19.8633 855.747 17.1387C856.362 17.1387 856.934 17.0947 857.461 17.0068C858.076 16.9189 858.604 16.875 859.043 16.875C859.482 16.7871 859.878 16.8311 860.229 17.0068C860.581 17.1826 860.889 17.5781 861.152 18.1934L878.95 58.2715L894.111 20.3027C894.287 19.8633 894.595 19.5117 895.034 19.248C895.562 18.8965 896.089 18.5889 896.616 18.3252C897.231 18.0615 897.847 17.8857 898.462 17.7979C899.077 17.6221 899.604 17.5342 900.044 17.5342C900.132 17.5342 900.176 17.666 900.176 17.9297C900.176 18.1934 900.264 19.1162 900.439 20.6982C900.615 22.2803 900.879 24.7852 901.23 28.2129C901.67 31.5527 902.329 36.3428 903.208 42.583C904.087 48.7354 905.186 56.6016 906.504 66.1816C907.91 75.6738 909.668 87.4072 911.777 101.382C911.426 102.173 910.942 102.7 910.327 102.964C909.8 103.228 909.272 103.315 908.745 103.228C908.306 103.14 907.866 102.964 907.427 102.7C907.075 102.349 906.855 101.909 906.768 101.382L896.748 30.5859L881.455 68.5547Z" fill="url(#paint0_linear_7_140)"/>
<defs>
<linearGradient id="paint0_linear_7_140" x1="-5.47949" y1="61.8867" x2="917.521" y2="61.8867" gradientUnits="userSpaceOnUse">
<stop stop-color="#1E9AFE"/>
<stop offset="1" stop-color="#60DFCD"/>
</linearGradient>
</defs>
</svg>
